<?xml version="1.0" encoding="utf-8"?>
<!-- Generator: Adobe Illustrator 21.1.0, SVG Export Plug-In . SVG Version: 6.00 Build 0)  -->
<svg version="1.1" id="Layer_1" xmlns="http://www.w3.org/2000/svg" xmlns:xlink="http://www.w3.org/1999/xlink" x="0px" y="0px"
	 viewBox="0 0 368 329" style="enable-background:new 0 0 368 329;" xml:space="preserve">
<style type="text/css">
	.st0{fill:#EF4136;stroke:#AF4119;stroke-width:8;stroke-linecap:round;stroke-linejoin:round;stroke-miterlimit:10;}
	.st1{fill:url(#SVGID_1_);stroke:#FFFFFF;stroke-width:3;stroke-linecap:round;stroke-linejoin:round;stroke-miterlimit:10;}
	.st2{fill:#DEC797;stroke:#FFFFFF;stroke-width:8;stroke-linecap:round;stroke-linejoin:round;stroke-miterlimit:10;}
	.st3{fill:#2BB673;stroke:#FFFFFF;stroke-width:8;stroke-linecap:round;stroke-linejoin:round;stroke-miterlimit:10;}
	.st4{fill:#C92439;stroke:#FFFFFF;stroke-width:8;stroke-linecap:round;stroke-linejoin:round;stroke-miterlimit:10;}
	.st5{fill:#FBB040;stroke:#FFFFFF;stroke-width:8;stroke-linecap:round;stroke-linejoin:round;stroke-miterlimit:10;}
	.st6{fill:none;stroke:#9B8579;stroke-width:8;stroke-linecap:round;stroke-linejoin:round;stroke-miterlimit:10;}
	.st7{fill:#FFFFFF;stroke:#AF4119;stroke-width:8;stroke-linecap:round;stroke-linejoin:round;stroke-miterlimit:10;}
	.st8{fill:#414042;}
</style>
<path class="st0" d="M69.2,323.3h230.9c38.5-32.7,62.9-81.5,62.9-136C363.1,88.8,283.2,9,184.7,9S6.3,88.8,6.3,187.4
	C6.3,241.8,30.7,290.6,69.2,323.3z"/>
<radialGradient id="SVGID_1_" cx="184.6532" cy="171.0104" r="160.708" gradientUnits="userSpaceOnUse">
	<stop  offset="3.480817e-04" style="stop-color:#F7941D"/>
	<stop  offset="1" style="stop-color:#F3723A"/>
</radialGradient>
<path class="st1" d="M84.8,323.3h199.6c41.8-30.7,68.9-80.2,68.9-136c0-93.2-75.5-168.7-168.7-168.7S16,94.2,16,187.4
	C16,243.2,43.1,292.6,84.8,323.3z"/>
<polygon class="st2" points="147.9,82.4 46.9,274.8 125.4,274.8 220.5,82.4 "/>
<path class="st3" d="M78.8,275.9c-2.2-2.9-0.6-12.5,1.6-16.3c2.3-3.8,6.6-6.3,10.3-5.9c-0.9-8.3-0.6-19.1,6.8-24.2
	c2.2-1.6,5.1-2.5,6.4-5c2.3-4.4-2.6-8.8-0.3-13.2c1.7-3.2,5.7-3.6,8.4-5.9c4.1-3.5,3.8-9.8,2.6-14.4s-2.7-10.1,0.5-14.7
	c3.8-5.5,12.2-6.2,14.8-12.2c2.5-5.7-2.6-10.5-2.2-16.4c0.4-6.7,7.3-11.8,13.1-15.5c5.8-3.7,12.6-9.3,12.4-15.9
	c-0.1-2.6-1.3-5.2,0-7.8c0.7-1.3,2-2.3,3.2-3.2c5.3-3.9,13.4-3.9,18.7-7.7c-4.7-2.4,3.8-9.8,5.7-16.1c3.8-12.7,26.5-23.7,36-10.8
	C230,88.6,219.1,91,219.1,91l-98.9,186.3L78.8,275.9z"/>
<ellipse transform="matrix(0.43 -0.9028 0.9028 0.43 -140.6532 248.258)" class="st4" cx="126.3" cy="235.5" rx="41.1" ry="30.2"/>
<ellipse transform="matrix(0.43 -0.9028 0.9028 0.43 -14.3419 243.6145)" class="st4" cx="185.8" cy="133.2" rx="41.1" ry="30.2"/>
<polygon class="st5" points="198.4,142.5 150.2,235.5 126.3,160 "/>
<path class="st2" d="M294.8,239.6c-8.6,0-16-5.1-19.4-12.5c-0.8,0-1.6,0.1-2.4,0.1c-21.7,0-39.3-17.6-39.3-39.3
	c0-9.3,3.2-17.9,8.7-24.6c-0.5-1.9-0.9-3.9-0.9-5.9c0-5.5,2.1-10.4,5.4-14.2L215,82.4l-101,192.4H332l-34.6-35.4
	C296.6,239.6,295.7,239.6,294.8,239.6z"/>
<line class="st6" x1="179" y1="211.7" x2="179" y2="211.7"/>
<line class="st6" x1="150" y1="250" x2="150" y2="250"/>
<line class="st6" x1="167" y1="242" x2="167" y2="242"/>
<line class="st6" x1="181.9" y1="250" x2="181.9" y2="250"/>
<line class="st6" x1="196.5" y1="231.5" x2="196.5" y2="231.5"/>
<polygon class="st7" points="362.8,323.3 185.8,323.3 8.8,323.3 17.8,299.5 8.8,275.7 185.8,275.7 362.8,275.7 355.8,299.5 "/>
<g>
	<path class="st8" d="M50.7,306.9c-0.8-0.9-1.3-2.3-1.3-4.3l3.4-0.5c0,1.1,0.2,2,0.4,2.4c0.3,0.5,0.6,0.7,1.2,0.7c0.7,0,1-0.4,1-1.3
		c0-0.7-0.2-1.3-0.5-1.8c-0.3-0.5-0.8-1-1.5-1.6l-1.5-1.3c-0.8-0.7-1.4-1.4-1.8-2.1c-0.4-0.7-0.6-1.6-0.6-2.6c0-1.5,0.4-2.7,1.3-3.5
		c0.9-0.8,2.1-1.2,3.7-1.2c1.7,0,2.9,0.5,3.5,1.5c0.6,1,0.9,2.2,1,3.6l-3.4,0.4c0-0.9-0.1-1.6-0.3-2c-0.1-0.4-0.4-0.6-0.9-0.6
		c-0.3,0-0.6,0.1-0.8,0.4c-0.2,0.3-0.3,0.6-0.3,1c0,0.6,0.1,1.2,0.4,1.6c0.3,0.4,0.7,0.9,1.3,1.4l1.5,1.3c0.9,0.8,1.6,1.6,2.1,2.4
		c0.5,0.8,0.7,1.8,0.7,2.9c0,0.8-0.2,1.6-0.6,2.3c-0.4,0.7-0.9,1.2-1.6,1.6c-0.7,0.4-1.5,0.6-2.5,0.6
		C52.8,308.3,51.6,307.8,50.7,306.9z"/>
	<path class="st8" d="M63.7,290.1h4.5l3.3,17.9h-3.7l-0.6-3.8h-2.6L64,308h-3.7L63.7,290.1z M66.9,301.8l-1-7l-1,7H66.9z"/>
	<path class="st8" d="M73.4,290.1h2.8l3.7,8.6v-8.6h3.3V308h-2.7l-3.7-9.3v9.3h-3.4V290.1z"/>
	<path class="st8" d="M85.8,290.1h4.5c1.5,0,2.8,0.2,3.6,0.6s1.5,1,1.8,1.8c0.4,0.8,0.5,1.9,0.5,3.3v6.5c0,1.4-0.2,2.5-0.5,3.3
		c-0.4,0.8-1,1.4-1.8,1.8s-2.1,0.6-3.6,0.6h-4.6V290.1z M90.4,305.2c0.6,0,1-0.1,1.3-0.3s0.4-0.4,0.5-0.7s0.1-0.8,0.1-1.4V295
		c0-0.6,0-1-0.1-1.3c-0.1-0.3-0.3-0.5-0.5-0.7c-0.3-0.1-0.7-0.2-1.3-0.2h-0.6v12.4H90.4z"/>
	<path class="st8" d="M97.9,290.1h3.4l1.1,10.4l1.4-10.4h2.6l1.4,10.4l1.1-10.4h3.3L110,308h-3.5l-1.5-10.8l-1.4,10.8h-3.5
		L97.9,290.1z"/>
	<path class="st8" d="M114.1,290.1h4V308h-4V290.1z"/>
	<path class="st8" d="M121.7,306.7c-0.8-1-1.2-2.5-1.2-4.4v-6.5c0-2,0.4-3.5,1.2-4.5s2.2-1.5,4.2-1.5c1.9,0,3.2,0.5,4,1.4
		c0.8,0.9,1.2,2.2,1.2,3.8v1.5h-3.9v-1.8c0-0.7-0.1-1.2-0.2-1.6c-0.1-0.4-0.5-0.6-1.1-0.6c-0.6,0-0.9,0.2-1.1,0.6
		c-0.2,0.4-0.3,0.9-0.3,1.6v8.4c0,0.7,0.1,1.3,0.3,1.6c0.2,0.4,0.5,0.6,1.1,0.6s0.9-0.2,1.1-0.6c0.2-0.4,0.2-0.9,0.2-1.6v-1.9h3.9
		v1.5c0,1.7-0.4,3-1.2,3.9c-0.8,0.9-2.1,1.4-4,1.4C123.9,308.3,122.5,307.7,121.7,306.7z"/>
	<path class="st8" d="M133.2,290.1h4v7.3h2.8v-7.3h4V308h-4v-7.8h-2.8v7.8h-4V290.1z"/>
	<path class="st8" d="M146.7,290.1h8.1v2.7h-4.1v4.4h3.1v2.7h-3.1v5.4h4.1v2.7h-8.1V290.1z"/>
	<path class="st8" d="M157.5,306.9c-0.8-0.9-1.3-2.3-1.3-4.3l3.4-0.5c0,1.1,0.2,2,0.4,2.4c0.3,0.5,0.6,0.7,1.2,0.7
		c0.7,0,1-0.4,1-1.3c0-0.7-0.2-1.3-0.5-1.8c-0.3-0.5-0.8-1-1.5-1.6l-1.5-1.3c-0.8-0.7-1.4-1.4-1.8-2.1c-0.4-0.7-0.6-1.6-0.6-2.6
		c0-1.5,0.4-2.7,1.3-3.5c0.9-0.8,2.1-1.2,3.7-1.2c1.7,0,2.9,0.5,3.5,1.5c0.6,1,0.9,2.2,1,3.6l-3.4,0.4c0-0.9-0.1-1.6-0.3-2
		c-0.1-0.4-0.4-0.6-0.9-0.6c-0.3,0-0.6,0.1-0.8,0.4c-0.2,0.3-0.3,0.6-0.3,1c0,0.6,0.1,1.2,0.4,1.6c0.3,0.4,0.7,0.9,1.3,1.4l1.5,1.3
		c0.9,0.8,1.6,1.6,2.1,2.4c0.5,0.8,0.7,1.8,0.7,2.9c0,0.8-0.2,1.6-0.6,2.3c-0.4,0.7-0.9,1.2-1.6,1.6c-0.7,0.4-1.5,0.6-2.5,0.6
		C159.6,308.3,158.4,307.8,157.5,306.9z"/>
	<path class="st8" d="M172.4,298.6h10.9v2.5h-10.9V298.6z"/>
	<path class="st8" d="M185.7,306.8c-0.8-1-1.2-2.5-1.2-4.4v-6.7c0-1.9,0.4-3.4,1.2-4.4c0.8-1,2.2-1.5,4.1-1.5c1.9,0,3.3,0.5,4.2,1.5
		c0.8,1,1.3,2.4,1.3,4.4v6.7c0,1.9-0.4,3.4-1.3,4.4c-0.8,1-2.2,1.5-4.2,1.5C187.9,308.3,186.5,307.8,185.7,306.8z M190.9,304.9
		c0.2-0.4,0.3-0.9,0.3-1.5v-8.6c0-0.7-0.1-1.2-0.3-1.5c-0.2-0.4-0.5-0.6-1.1-0.6c-0.5,0-0.9,0.2-1.1,0.6c-0.2,0.4-0.3,0.9-0.3,1.5
		v8.6c0,0.7,0.1,1.2,0.2,1.5c0.2,0.4,0.5,0.6,1.1,0.6C190.4,305.4,190.7,305.3,190.9,304.9z"/>
	<path class="st8" d="M197.6,290.1h2.8l3.7,8.6v-8.6h3.3V308h-2.7l-3.7-9.3v9.3h-3.4V290.1z"/>
	<path class="st8" d="M208.8,298.6h10.9v2.5h-10.9V298.6z"/>
	<path class="st8" d="M227,290.1h4.3l2,10.4l2.1-10.4h4.1l0.3,17.9h-2.8l-0.3-11.9l-2.1,11.9H232l-2.2-12l-0.3,12h-2.9L227,290.1z"
		/>
	<path class="st8" d="M243.3,306.8c-0.8-1-1.2-2.5-1.2-4.4v-6.7c0-1.9,0.4-3.4,1.2-4.4c0.8-1,2.2-1.5,4.1-1.5c1.9,0,3.3,0.5,4.2,1.5
		c0.8,1,1.3,2.4,1.3,4.4v6.7c0,1.9-0.4,3.4-1.3,4.4c-0.8,1-2.2,1.5-4.2,1.5C245.5,308.3,244.2,307.8,243.3,306.8z M248.6,304.9
		c0.2-0.4,0.3-0.9,0.3-1.5v-8.6c0-0.7-0.1-1.2-0.3-1.5c-0.2-0.4-0.5-0.6-1.1-0.6c-0.5,0-0.9,0.2-1.1,0.6c-0.2,0.4-0.3,0.9-0.3,1.5
		v8.6c0,0.7,0.1,1.2,0.2,1.5c0.2,0.4,0.5,0.6,1.1,0.6C248,305.4,248.4,305.3,248.6,304.9z"/>
	<path class="st8" d="M257.3,307.6c-0.8-0.4-1.3-1.1-1.6-1.9s-0.5-1.9-0.5-3.2v-12.4h3.9v13c0,0.7,0.1,1.3,0.3,1.7
		c0.2,0.4,0.6,0.6,1.1,0.6s0.9-0.2,1.1-0.6c0.2-0.4,0.3-1,0.3-1.7v-13h3.9v12.4c0,1.3-0.2,2.4-0.5,3.2s-0.9,1.5-1.6,1.9
		c-0.8,0.4-1.8,0.7-3.2,0.7C259.1,308.3,258.1,308,257.3,307.6z"/>
	<path class="st8" d="M268.3,290.1h2.8l3.7,8.6v-8.6h3.3V308h-2.7l-3.7-9.3v9.3h-3.4V290.1z"/>
	<path class="st8" d="M282.4,293h-2.7v-2.9h9.5v2.9h-2.7v15h-4V293z"/>
	<path class="st8" d="M293.1,290.1h4.5l3.3,17.9h-3.7l-0.6-3.8H294l-0.6,3.8h-3.7L293.1,290.1z M296.3,301.8l-1-7l-1,7H296.3z"/>
	<path class="st8" d="M302.7,290.1h4V308h-4V290.1z"/>
	<path class="st8" d="M309.4,290.1h2.8l3.7,8.6v-8.6h3.3V308h-2.7l-3.7-9.3v9.3h-3.4V290.1z"/>
	<path class="st8" d="M322.7,306.9c-0.8-0.9-1.3-2.3-1.3-4.3l3.4-0.5c0,1.1,0.2,2,0.4,2.4c0.3,0.5,0.6,0.7,1.2,0.7
		c0.7,0,1-0.4,1-1.3c0-0.7-0.2-1.3-0.5-1.8c-0.3-0.5-0.8-1-1.5-1.6l-1.5-1.3c-0.8-0.7-1.4-1.4-1.8-2.1c-0.4-0.7-0.6-1.6-0.6-2.6
		c0-1.5,0.4-2.7,1.3-3.5c0.9-0.8,2.1-1.2,3.7-1.2c1.7,0,2.9,0.5,3.5,1.5s0.9,2.2,1,3.6l-3.4,0.4c0-0.9-0.1-1.6-0.3-2
		c-0.1-0.4-0.4-0.6-0.9-0.6c-0.3,0-0.6,0.1-0.8,0.4c-0.2,0.3-0.3,0.6-0.3,1c0,0.6,0.1,1.2,0.4,1.6c0.3,0.4,0.7,0.9,1.3,1.4l1.5,1.3
		c0.9,0.8,1.6,1.6,2.1,2.4c0.5,0.8,0.7,1.8,0.7,2.9c0,0.8-0.2,1.6-0.6,2.3c-0.4,0.7-0.9,1.2-1.6,1.6c-0.7,0.4-1.5,0.6-2.5,0.6
		C324.8,308.3,323.6,307.8,322.7,306.9z"/>
</g>
</svg>
